<svg xmlns="http://www.w3.org/2000/svg" viewBox="0 0 48 48" id="battery">
  <path d="M45.681,8.659H40.826v-1.5a1.283,1.283,0,0,0-1.282-1.282h-5.8a1.283,1.283,0,0,0-1.282,1.282v1.5H15.534v-1.5a1.283,1.283,0,0,0-1.282-1.282h-5.8A1.283,1.283,0,0,0,7.174,7.156v1.5H2.319A2.321,2.321,0,0,0,0,10.978v28.83a2.321,2.321,0,0,0,2.319,2.318H45.681A2.321,2.321,0,0,0,48,39.808V10.978A2.321,2.321,0,0,0,45.681,8.659ZM46.5,39.808a.819.819,0,0,1-.819.818H2.319a.819.819,0,0,1-.819-.818V10.978a.819.819,0,0,1,.819-.819H7.924a.75.75,0,0,0,.75-.75V7.374h5.36V9.409a.75.75,0,0,0,.75.75H33.216a.75.75,0,0,0,.75-.75V7.374h5.36V9.409a.75.75,0,0,0,.75.75h5.6a.819.819,0,0,1,.819.819Z"></path>
  <path d="M33.713 15.514h5.544a.75.75 0 0 0 0-1.5H33.713a.75.75 0 0 0 0 1.5zM8.563 15.514h2.022v2.022a.75.75 0 0 0 1.5 0V15.514h2.022a.75.75 0 0 0 0-1.5H12.085V11.992a.75.75 0 0 0-1.5 0v2.022H8.563a.75.75 0 0 0 0 1.5zM41.082 18.031c-.485.011-11.936.342-17.383 8.061-2.819 4-2.781 6.743-2.372 8.905a5.353 5.353 0 0 0 5.3 4.359H26.7a10.012 10.012 0 0 0 7.387-3.564c2.211-2.365 2.789-5.641 3.252-8.274a21.371 21.371 0 0 1 .493-2.341 15.391 15.391 0 0 1 3.777-5.844.753.753 0 0 0 .186-.833A.77.77 0 0 0 41.082 18.031zM36.4 24.737a22.172 22.172 0 0 0-.536 2.521c-.429 2.437-.964 5.47-2.871 7.509A8.565 8.565 0 0 1 26.7 37.856h-.061A3.868 3.868 0 0 1 22.8 34.718c-.35-1.852-.372-4.223 2.124-7.761 3.752-5.318 10.913-6.834 14.311-7.262A15.337 15.337 0 0 0 36.4 24.737z"></path>
  <path d="M21.019 37.83a7.622 7.622 0 0 1-4.435-1.091c-1.994-1.112-3.177-3.36-4.128-5.165A18.923 18.923 0 0 0 11.383 29.7a12.653 12.653 0 0 0-3.3-3.131c2.775-.484 8.161-.928 12.238 1.776a.75.75 0 0 0 .829-1.25C14.853 22.918 6.2 25.42 5.83 25.53a.75.75 0 0 0-.1 1.4 12.672 12.672 0 0 1 4.423 3.627 17.412 17.412 0 0 1 .977 1.716c1.044 1.982 2.343 4.448 4.726 5.777a9.437 9.437 0 0 0 4.6 1.307q.355 0 .708-.033a.75.75 0 0 0-.14-1.493zM24.662 35.191a.735.735 0 0 0 .308.067.749.749 0 0 0 .684-.442A31.693 31.693 0 0 1 28.7 29.829a35.1 35.1 0 0 1 6.225-6.362.75.75 0 0 0-.908-1.194 36.016 36.016 0 0 0-6.531 6.675A33.131 33.131 0 0 0 24.287 34.2.749.749 0 0 0 24.662 35.191z"></path>
  <path d="M13.561,28.667a.749.749,0,0,0,.39.986,33.443,33.443,0,0,1,5.04,2.82.75.75,0,1,0,.855-1.232,34.4,34.4,0,0,0-5.3-2.964A.746.746,0,0,0,13.561,28.667Z"></path>
</svg>
