<svg xmlns="http://www.w3.org/2000/svg" viewBox="0 0 80 80" id="power-battery">
  <path d="M73 64.184V23.816A2.995 2.995 0 0 0 75 21c0-1.654-1.346-3-3-3h-1v-3a1 1 0 0 0-1-1h-2v-3a1 1 0 0 0-1-1h-6a1 1 0 0 0-1 1v3h-2a1 1 0 0 0-1 1v3h-6v-7a1 1 0 0 0-1-1H30a1 1 0 0 0-1 1v7h-6v-3a1 1 0 0 0-1-1h-2v-3a1 1 0 0 0-1-1h-6a1 1 0 0 0-1 1v3h-2a1 1 0 0 0-1 1v3H8c-1.654 0-3 1.346-3 3 0 1.302.839 2.402 2 2.816v40.368A2.995 2.995 0 0 0 5 67c0 1.654 1.346 3 3 3h64c1.654 0 3-1.346 3-3a2.995 2.995 0 0 0-2-2.816zM9 64V24h62v40H9zm53-52h4v2h-4v-2zm-3 4h10v2H59v-2zm-28-4h18v6H31v-6zm-17 0h4v2h-4v-2zm-3 4h10v2H11v-2zm-3 4h64a1.001 1.001 0 0 1 0 2H8a1.001 1.001 0 0 1 0-2zm64 48H8a1.001 1.001 0 0 1 0-2h64a1.001 1.001 0 0 1 0 2z"></path>
  <path d="M47.895 39.553A1 1 0 0 0 47 39h-3.557l2.494-6.649A1.001 1.001 0 0 0 45 31h-7a1 1 0 0 0-.923.615l-5 12A1 1 0 0 0 33 45h3.719L34.03 55.757a.999.999 0 0 0 1.77.843l12-16a1 1 0 0 0 .095-1.047zM37.17 51.438l1.799-7.195A.998.998 0 0 0 38 43h-3.5l4.167-10h4.89l-2.494 6.649A1.001 1.001 0 0 0 42 41h3l-7.83 10.438z"></path>
</svg>
