<svg xmlns="http://www.w3.org/2000/svg" enable-background="new 0 0 64 64" viewBox="0 0 64 64" id="resistors">
  <path d="M26.293,39.292C25.459,40.126,25,41.234,25,42.414C25,44.943,27.058,47,29.586,47H31v16h2V47h1.414
		C36.942,47,39,44.943,39,42.414c0-1.18-0.459-2.288-1.293-3.122C37.251,38.837,37,38.231,37,37.586V26.414
		c0-0.645,0.251-1.251,0.707-1.707C38.541,23.874,39,22.766,39,21.586C39,19.057,36.942,17,34.414,17H33V1h-2v16h-1.414
		C27.058,17,25,19.057,25,21.586c0,1.18,0.459,2.288,1.293,3.122C26.749,25.163,27,25.769,27,26.414v11.172
		C27,38.231,26.749,38.837,26.293,39.292z M29,30h6v4h-6V30z M35,26.414V28h-6v-1.586c0-0.491-0.097-0.963-0.25-1.414h6.5
		C35.097,25.451,35,25.923,35,26.414z M29,37.586V36h6v1.586c0,0.491,0.097,0.963,0.25,1.414h-6.5
		C28.903,38.549,29,38.077,29,37.586z M34.414,45h-4.828C28.16,45,27,43.84,27,42.414c0-0.517,0.168-1.005,0.466-1.414h9.068
		C36.832,41.409,37,41.897,37,42.414C37,43.84,35.84,45,34.414,45z M29.586,19h4.828C35.84,19,37,20.16,37,21.586
		c0,0.517-0.168,1.005-0.466,1.414h-9.068C27.168,22.591,27,22.103,27,21.586C27,20.16,28.16,19,29.586,19z"></path>
</svg>
