<svg xmlns="http://www.w3.org/2000/svg" width="512pt" height="512pt" viewBox="0 0 512 512" id="co">
  <path d="M106 392c-5.066406 0-10.023438.960938-15 2.914062-4.976562-1.953124-9.9375-2.914062-15-2.914062-24.8125 0-45 20.1875-45 45 0 20.269531 13.472656 37.453125 31.933594 43.066406 5.613281 18.460938 22.796875 31.933594 43.066406 31.933594 24.8125 0 45-20.1875 45-45 0-5.066406-.960938-10.023438-2.914062-15 1.953124-4.976562 2.914062-9.933594 2.914062-15 0-24.8125-20.1875-45-45-45zm12.503906 67.65625c1.703125 2.871094 2.496094 5.203125 2.496094 7.34375 0 8.269531-6.730469 15-15 15s-15-6.730469-15-15v-15h-15c-8.269531 0-15-6.730469-15-15s6.730469-15 15-15c2.140625 0 4.472656.792969 7.34375 2.496094l7.65625 4.546875 7.65625-4.546875c2.871094-1.703125 5.203125-2.496094 7.34375-2.496094 8.269531 0 15 6.730469 15 15 0 2.140625-.792969 4.476562-2.496094 7.34375l-4.546875 7.65625zm0 0M136 301c24.8125 0 45-20.1875 45-45v-15h-30v15c0 8.269531-6.730469 15-15 15s-15-6.730469-15-15v-60c0-8.269531 6.730469-15 15-15s15 6.730469 15 15v15h30v-15c0-24.8125-20.1875-45-45-45s-45 20.1875-45 45v60c0 24.8125 20.1875 45 45 45zm0 0M256 301c24.8125 0 45-20.1875 45-45v-60c0-24.8125-20.1875-45-45-45s-45 20.1875-45 45v60c0 24.8125 20.1875 45 45 45zm-15-105c0-8.269531 6.730469-15 15-15s15 6.730469 15 15v60c0 8.269531-6.730469 15-15 15s-15-6.730469-15-15zm0 0M421 271h-59.582031c1.015625-4.242188 3.84375-7.859375 7.875-9.875l26.832031-13.417969c15.34375-7.671875 24.875-23.09375 24.875-40.246093v-11.460938c0-24.8125-20.1875-45-45-45s-45 20.1875-45 45v15h30v-15c0-8.269531 6.730469-15 15-15s15 6.730469 15 15v11.460938c0 5.714843-3.175781 10.855468-8.292969 13.414062l-26.832031 13.417969c-15.34375 7.671875-24.875 23.09375-24.875 40.246093v26.460938h90zm0 0"></path>
  <path d="m136 362h20.140625c12.527344 35.402344 46.445313 60 84.859375 60s72.332031-24.597656 84.859375-60h35.140625c82.929688 0 151-68.089844 151-151 0-79.933594-64.605469-149.472656-150.433594-149.472656-.101562 0-.207031 0-.308594 0-28.648437-38.679688-73.007812-61.527344-120.257812-61.527344-61.121094 0-115.828125 37.996094-138.691406 95.402344-59.777344 15.265625-102.308594 68.878906-102.308594 130.597656 0 74.640625 61.378906 136 136 136zm-19.640625-239 8.628906-1.636719 2.796875-8.328125c16.675782-49.667968 62.171875-83.035156 113.214844-83.035156 39.914062 0 77.332031 20.566406 100.09375 55.015625l4.746094 7.179687 8.59375-.472656c72.054687-3.953125 127.566406 52.933594 127.566406 119.277344 0 66.71875-54.28125 121-121 121h-58.773438l-2.4375 12.015625c-5.648437 27.804687-30.371093 47.984375-58.789062 47.984375s-53.144531-20.179688-58.789062-47.984375l-2.4375-12.015625h-43.773438c-58.449219 0-106-47.550781-106-106 0-50.195312 36.320312-93.515625 86.359375-103zm0 0"></path>
</svg>
