<svg xmlns="http://www.w3.org/2000/svg" width="24" height="24" fill-rule="evenodd" stroke-linejoin="round" stroke-miterlimit="2" clip-rule="evenodd" id="notification">
  <path d="M382,41L386,41C386.552,41 387,40.552 387,40C387,39.448 386.552,39 386,39L382,39C381.448,39 381,39.448 381,40C381,40.552 381.448,41 382,41ZM390,31.764L390,27.998C390,24.685 387.315,22 384.002,22L383.998,22C380.685,22 378,24.685 378,27.998L378,31.764C378,31.764 376.106,35.553 376.106,35.553C375.951,35.863 375.967,36.231 376.149,36.526C376.332,36.821 376.653,37 377,37L391,37C391.347,37 391.668,36.821 391.851,36.526C392.033,36.231 392.049,35.863 391.894,35.553L390,31.764ZM388,32C388,32.155 388.036,32.308 388.106,32.447L389.382,35C389.382,35 378.618,35 378.618,35C378.618,35 379.894,32.447 379.894,32.447C379.964,32.308 380,32.155 380,32L380,27.998C380,25.79 381.79,24 383.998,24L384.002,24C386.21,24 388,25.79 388,27.998L388,32Z" transform="translate(-372 -20)"></path>
</svg>
