<svg xmlns="http://www.w3.org/2000/svg" enable-background="new 0 0 50 50" viewBox="0 0 50 50" id="power-battery">
  <path d="M48,9.44238h-4.80762V6.53223c0-0.55273-0.44727-1-1-1h-8.27051c-0.55273,0-1,0.44727-1,1v2.91016H17.07813V6.53223
		c0-0.55273-0.44727-1-1-1H7.80762c-0.55273,0-1,0.44727-1,1v2.91016H2c-0.55273,0-1,0.44727-1,1v5.75c0,0.55273,0.44727,1,1,1
		h2.35352v26.27539c0,0.55273,0.44727,1,1,1h39.29199c0.55273,0,1-0.44727,1-1V17.19238H48c0.55273,0,1-0.44727,1-1v-5.75
		C49,9.88965,48.55273,9.44238,48,9.44238z M43.64551,42.46777H6.35352V17.19531h37.29199V42.46777z M47,15.19238H3v-3.75h4.80762
		c0.55273,0,1-0.44727,1-1V7.53223h6.27051v2.91016c0,0.55273,0.44727,1,1,1h17.84375c0.55273,0,1-0.44727,1-1V7.53223h6.27051
		v2.91016c0,0.55273,0.44727,1,1,1H47V15.19238z"></path>
  <path d="M10.62402 25.90039h1.7959v1.79492c0 .55273.44727 1 1 1s1-.44727 1-1v-1.79492h1.79492c.55273 0 1-.44727 1-1s-.44727-1-1-1h-1.79492v-1.7959c0-.55273-.44727-1-1-1s-1 .44727-1 1v1.7959h-1.7959c-.55273 0-1 .44727-1 1S10.07129 25.90039 10.62402 25.90039zM33.78418 25.90039h5.58984c.55273 0 1-.44727 1-1s-.44727-1-1-1h-5.58984c-.55273 0-1 .44727-1 1S33.23145 25.90039 33.78418 25.90039z"></path>
</svg>
