<svg xmlns="http://www.w3.org/2000/svg" id="forecast" viewBox="0 0 100 100">
  <path d="M62.68 27.16c4.88.04 9.8 1.39 13.77 4.22s6.89 7.23 7.55 12.06-1.13 10.03-4.9 13.12c-4.42 3.63-10.82 3.97-16.33 2.44-5.51-1.53-10.41-4.66-15.39-7.49s-10.29-5.44-16.01-5.74-11.92 2.24-14.4 7.4c-1.35 2.82-1.45 6.21-.27 9.1s3.64 5.24 6.58 6.3c1.49.54 3.17.74 4.66.18s2.68-2.05 2.56-3.63c-.12-1.59-1.56-2.89-3.14-3.14s-3.2.39-4.43 1.42c-2.44 2.05-3.4 5.69-2.28 8.67 1.11 2.98 4.22 5.11 7.4 5.06M57.48 26.14c.18-2.73-2.23-5.1-4.89-5.74s-5.44.08-8.01 1.01-5.1 2.09-7.82 2.39c1.61-.42 3.33.08 4.82.83s2.84 1.77 4.35 2.48c3.92 1.85 8.81 1.43 11.55-.97ZM32.33 77.79c.63-2.07 2.78-3.37 4.92-3.7s4.31.14 6.44.52 4.35.69 6.43.08c-2.07 2.56-5.07 4.35-8.31 4.93s-6.68-.04-9.47-1.84Z" style="fill:none;stroke:#000;stroke-linecap:round;stroke-linejoin:round;stroke-width:2px"></path>
</svg>
